<?xml version="1.0" encoding="UTF-8" standalone="no"?>
<!-- Created with Inkscape (http://www.inkscape.org/) -->

<svg
   xmlns:dc="http://purl.org/dc/elements/1.1/"
   xmlns:cc="http://creativecommons.org/ns#"
   xmlns:rdf="http://www.w3.org/1999/02/22-rdf-syntax-ns#"
   xmlns:svg="http://www.w3.org/2000/svg"
   xmlns="http://www.w3.org/2000/svg"
   xmlns:sodipodi="http://sodipodi.sourceforge.net/DTD/sodipodi-0.dtd"
   xmlns:inkscape="http://www.inkscape.org/namespaces/inkscape"
   width="417.2312"
   height="171.19972"
   id="svg2"
   version="1.1"
   inkscape:version="0.48.2 r9819"
   sodipodi:docname="New document 1">
  <defs
     id="defs4">
    <clipPath
       id="clipPath3195"
       clipPathUnits="userSpaceOnUse">
      <path
         id="path3197"
         d="m 0,0 595.276,0 0,841.89 L 0,841.89 0,0 z"
         inkscape:connector-curvature="0" />
    </clipPath>
    <clipPath
       id="clipPath3159"
       clipPathUnits="userSpaceOnUse">
      <path
         id="path3161"
         d="m 0,0 595.276,0 0,841.89 L 0,841.89 0,0 z"
         inkscape:connector-curvature="0" />
    </clipPath>
    <clipPath
       id="clipPath3141"
       clipPathUnits="userSpaceOnUse">
      <path
         id="path3143"
         d="m 0,0 595.276,0 0,841.89 L 0,841.89 0,0 z"
         inkscape:connector-curvature="0" />
    </clipPath>
    <clipPath
       id="clipPath3115"
       clipPathUnits="userSpaceOnUse">
      <path
         id="path3117"
         d="m 0,0 595.276,0 0,841.89 L 0,841.89 0,0 z"
         inkscape:connector-curvature="0" />
    </clipPath>
    <clipPath
       id="clipPath3083"
       clipPathUnits="userSpaceOnUse">
      <path
         id="path3085"
         d="m 0,0 595.276,0 0,841.89 L 0,841.89 0,0 z"
         inkscape:connector-curvature="0" />
    </clipPath>
    <clipPath
       id="clipPath3067"
       clipPathUnits="userSpaceOnUse">
      <path
         id="path3069"
         d="m 0,0 595.276,0 0,841.89 L 0,841.89 0,0 z"
         inkscape:connector-curvature="0" />
    </clipPath>
    <clipPath
       id="clipPath3051"
       clipPathUnits="userSpaceOnUse">
      <path
         id="path3053"
         d="m 0,0 595.276,0 0,841.89 L 0,841.89 0,0 z"
         inkscape:connector-curvature="0" />
    </clipPath>
    <clipPath
       id="clipPath3027"
       clipPathUnits="userSpaceOnUse">
      <path
         id="path3029"
         d="m 0,0 595.276,0 0,841.89 L 0,841.89 0,0 z"
         inkscape:connector-curvature="0" />
    </clipPath>
    <clipPath
       id="clipPath3013"
       clipPathUnits="userSpaceOnUse">
      <path
         id="path3015"
         d="M 0,43.969 0,0 l 595.275,0 0,115.414 L 0,43.969 z"
         inkscape:connector-curvature="0" />
    </clipPath>
    <clipPath
       id="clipPath2999"
       clipPathUnits="userSpaceOnUse">
      <path
         id="path3001"
         d="m -0.015,841.895 595.29,0 0,-841.757 -595.29,0 0,841.757 z"
         inkscape:connector-curvature="0" />
    </clipPath>
  </defs>
  <sodipodi:namedview
     id="base"
     pagecolor="#ffffff"
     bordercolor="#666666"
     borderopacity="1.0"
     inkscape:pageopacity="0.0"
     inkscape:pageshadow="2"
     inkscape:zoom="1.0074671"
     inkscape:cx="137.69485"
     inkscape:cy="108.01122"
     inkscape:document-units="px"
     inkscape:current-layer="g2993"
     showgrid="false"
     fit-margin-top="0"
     fit-margin-left="0"
     fit-margin-right="0"
     fit-margin-bottom="0"
     inkscape:window-width="1146"
     inkscape:window-height="720"
     inkscape:window-x="88"
     inkscape:window-y="88"
     inkscape:window-maximized="0" />
  <metadata
     id="metadata7">
    <rdf:RDF>
      <cc:Work
         rdf:about="">
        <dc:format>image/svg+xml</dc:format>
        <dc:type
           rdf:resource="http://purl.org/dc/dcmitype/StillImage" />
        <dc:title></dc:title>
      </cc:Work>
    </rdf:RDF>
  </metadata>
  <g
     inkscape:label="Layer 1"
     inkscape:groupmode="layer"
     id="layer1"
     transform="translate(-237.30515,-731.76762)">
    <g
       transform="matrix(1.25,0,0,-1.25,2.9625,1058.5466)"
       inkscape:label="FMG2011AnnualReport68"
       id="g2993">
      <g
         id="g3558">
        <g
           id="g3470">
          <g
             id="g3023"
             transform="matrix(1.7344849,0,0,1.7344849,-382.85695,-91.416491)">
            <g
               clip-path="url(#clipPath3027)"
               id="g3025">
              <g
                 transform="translate(343.461,158.4713)"
                 id="g3035">
                <path
                   id="path3037"
                   style="fill:#ffffff;fill-opacity:1;fill-rule:nonzero;stroke:none"
                   d="m 0,0 c 0.673,0.023 1.399,0.103 1.872,0.168 l 0.17,0.054 0,17.896 0,0.513 10.297,0 0,-2.848 -7.425,0 0,-4.802 6.396,0 0,-2.848 -6.396,0 0,-7.125 c 5.28,2.107 9.015,7.282 9.015,13.338 0,5.185 -2.736,9.726 -6.836,12.249 C 7.099,26.51 7.103,26.428 7.108,26.34 7.197,24.683 6.921,22.474 5.217,20.981 4.729,20.552 4.126,20.181 3.376,19.901 L 3.364,19.897 C 2.588,19.607 1.786,19.32 0.982,19.019 -0.597,18.428 -2.183,17.784 -3.611,16.966 -6.023,15.585 -7.976,13.703 -8.66,10.732 -8.943,9.503 -9.012,8.091 -8.802,6.446 c 0.16,-1.251 0.422,-2.444 0.751,-3.653 0.043,-0.157 0.086,-0.315 0.132,-0.472 0.017,-0.062 0.036,-0.124 0.054,-0.185 2.182,-1.358 4.753,-2.143 7.508,-2.143 0.12,0 0.238,0.004 0.357,0.007"
                   inkscape:connector-curvature="0" />
              </g>
              <g
                 transform="translate(410.3604,175.6072)"
                 id="g3039">
                <path
                   id="path3041"
                   style="fill:#112552;fill-opacity:1;fill-rule:nonzero;stroke:none"
                   d="M 0,0 C 0,0 -1.638,-0.624 -2.385,-0.04 -3.132,0.544 -4.12,5.397 -4.12,5.397 l -2.418,1.183 -0.954,0.788 -5.345,12.412 -1.5,-0.512 -0.476,3.547 -2.077,5.004 -2.61,-5.971 c 0,0 -1.501,-10.407 -2.363,-10.462 -0.86,-0.055 -9.194,5.485 -9.499,6.463 -0.303,0.979 3.134,6.107 3.134,6.107 l -5.758,0.513 -1.361,0.63 -3.098,1.694 1.428,-2.324 -3.436,0.041 -2.42,-3.155 c 0,0 0.557,-3.127 -0.375,-3.703 -0.933,-0.577 -2.348,0.71 -2.348,0.71 l -0.58,0.117 -1.602,1.812 -2.858,0.12 -1.194,-2.878 -1.257,-0.039 0.885,-1.064 -3.338,-1.3 0.307,-4.137 -1.703,3.586 -1.567,-2.012 0.41,-2.048 -1.629,-1.008 -0.084,-0.052 c 4.099,-2.523 6.836,-7.064 6.836,-12.249 0,-6.055 -3.736,-11.231 -9.016,-13.338 l 0,7.125 6.397,0 0,2.848 -6.397,0 0,4.802 7.425,0 0,2.848 -10.297,0 0,-0.513 0,-17.896 0,-0.032 c -0.057,-0.008 -0.114,-0.015 -0.169,-0.022 -0.473,-0.065 -1.2,-0.145 -1.872,-0.168 -0.119,-0.003 -0.237,-0.007 -0.357,-0.007 -2.755,0 -5.327,0.785 -7.509,2.143 0.068,-0.233 0.135,-0.466 0.207,-0.703 1.27,-3.906 2.616,-8.19 2.825,-9.425 l 0.002,-0.008 10e-4,-0.008 c 0.026,-0.16 0.033,-0.269 0.017,-0.314 -0.262,-0.705 -1.533,-0.985 -1.533,-0.985 l 3.098,-3.112 c 0,0 9.367,4.078 10.084,3.966 0.717,-0.112 1.392,-1.484 1.392,-1.484 0,0 16.507,6.39 18.629,5.91 2.12,-0.48 7.966,-7.368 7.966,-7.368 l 1.532,-0.117 3.916,5.043 -1.599,-5.675 1.531,-0.51 0.715,2.323 0.954,-1.498 -0.92,-2.047 1.634,0.355 5.006,-6.858 3.332,-0.683 3.376,0.839 3.541,-1.929 0.902,0 -0.188,0.657 2.453,2.259 4.19,1.023 4.072,11.151 0.75,0.71 L 5.377,-6.541 0.134,-2.287 0,0 z m -30.271,-16.957 -1.616,11.747 -5.78,-11.747 -0.896,0 -5.853,11.843 -1.606,-11.843 -2.008,0 -0.417,0 2.614,18.347 0.822,0 6.904,-14.002 6.839,14.002 0.819,0 2.627,-18.347 -2.449,0 z m 26.52,8.806 c -0.009,-1.397 -0.22,-2.662 -0.639,-3.789 -0.419,-1.128 -1.049,-2.116 -1.882,-2.952 -0.832,-0.837 -1.81,-1.468 -2.923,-1.885 -1.113,-0.418 -2.357,-0.623 -3.729,-0.623 l -0.002,0 c -1.661,0 -3.164,0.284 -4.498,0.862 -1.335,0.577 -2.497,1.445 -3.476,2.595 -0.753,0.884 -1.322,1.844 -1.7,2.874 -0.38,1.03 -0.569,2.129 -0.569,3.29 l 0,0.001 0,0 0,10e-4 0,0.004 c 0,1.729 0.436,3.35 1.301,4.838 0.865,1.492 2.062,2.667 3.571,3.507 1.51,0.842 3.22,1.262 5.107,1.262 l 0.004,0 0,0 0.002,0 c 1.529,0 2.976,-0.279 4.332,-0.836 1.361,-0.56 2.677,-1.452 3.95,-2.667 l 0.277,-0.263 -1.888,-1.797 -0.249,0.245 c -0.95,0.938 -1.982,1.643 -3.102,2.124 -1.127,0.482 -2.212,0.719 -3.262,0.719 -1.316,0 -2.562,-0.323 -3.757,-0.974 -1.192,-0.652 -2.102,-1.522 -2.753,-2.627 -0.653,-1.112 -0.974,-2.27 -0.974,-3.499 0,-1.261 0.333,-2.451 1.01,-3.595 0.675,-1.138 1.6,-2.027 2.795,-2.682 1.195,-0.653 2.497,-0.979 3.929,-0.98 1.737,0.002 3.169,0.486 4.35,1.452 0.592,0.485 1.057,1.036 1.404,1.657 0.279,0.5 0.479,1.047 0.605,1.644 l 0.007,0.032 -5.523,0 0,2.427 8.284,0 -0.002,-0.365 z"
                   inkscape:connector-curvature="0" />
              </g>
            </g>
          </g>
          <g
             transform="matrix(1.7344849,0,0,1.7344849,303.73544,136.59612)"
             id="g3043">
            <path
               id="path3045"
               style="fill:#112552;fill-opacity:1;fill-rule:nonzero;stroke:none"
               d="M 0,0 1.766,-3.962 2.375,-6.196 5.803,-6.995 6.201,-5.801 7.435,-6.637 7.603,-6.002 8.407,-4.6 8.706,-0.785 4.849,-1.152 0,0 z"
               inkscape:connector-curvature="0" />
          </g>
          <g
             id="g3047"
             transform="matrix(1.7344849,0,0,1.7344849,-382.85695,-91.416491)">
            <g
               clip-path="url(#clipPath3051)"
               id="g3049">
              <g
                 transform="translate(335.4097,161.2639)"
                 id="g3055">
                <path
                   id="path3057"
                   style="fill:#112552;fill-opacity:1;fill-rule:nonzero;stroke:none"
                   d="m 0,0 c -0.329,1.21 -0.591,2.402 -0.75,3.653 -0.21,1.645 -0.141,3.057 0.142,4.286 0.683,2.971 2.636,4.853 5.048,6.234 1.428,0.818 3.015,1.462 4.594,2.053 0.803,0.301 1.605,0.588 2.381,0.878 l 0.012,0.004 c 0.75,0.28 1.353,0.652 1.842,1.08 1.703,1.493 1.98,3.702 1.89,5.359 -0.005,0.088 -0.008,0.17 -0.014,0.255 -2.169,1.334 -4.722,2.105 -7.45,2.105 -7.89,0 -14.286,-6.426 -14.286,-14.353 0,-5.159 2.711,-9.68 6.777,-12.211 C 0.168,-0.596 0.149,-0.534 0.132,-0.472 0.087,-0.314 0.043,-0.157 0,0"
                   inkscape:connector-curvature="0" />
              </g>
            </g>
          </g>
          <g
             transform="matrix(1.7344849,0,0,1.7344849,274.67345,215.58283)"
             id="g3059">
            <path
               id="path3061"
               style="fill:#ffffff;fill-opacity:1;fill-rule:nonzero;stroke:none"
               d="M 0,0 -6.839,-14.002 -13.743,0 l -0.822,0 -2.614,-18.348 0.417,0 2.008,0 1.606,11.844 5.853,-11.844 0.896,0 5.78,11.748 1.615,-11.748 2.45,0 L 0.819,0 0,0 z"
               inkscape:connector-curvature="0" />
          </g>
          <g
             id="g3063"
             transform="matrix(1.7344849,0,0,1.7344849,-382.85695,-91.416491)">
            <g
               clip-path="url(#clipPath3067)"
               id="g3065">
              <g
                 transform="translate(398.3276,165.3947)"
                 id="g3071">
                <path
                   id="path3073"
                   style="fill:#ffffff;fill-opacity:1;fill-rule:nonzero;stroke:none"
                   d="M 0,0 5.523,0 5.516,-0.032 C 5.39,-0.629 5.189,-1.177 4.911,-1.677 4.564,-2.298 4.099,-2.848 3.507,-3.334 2.326,-4.3 0.894,-4.783 -0.843,-4.785 c -1.432,0.001 -2.734,0.326 -3.929,0.98 -1.195,0.654 -2.12,1.543 -2.796,2.682 -0.677,1.144 -1.009,2.333 -1.009,3.594 0,1.229 0.321,2.387 0.974,3.499 0.651,1.105 1.561,1.976 2.753,2.627 1.195,0.652 2.44,0.974 3.757,0.975 1.05,0 2.135,-0.237 3.262,-0.72 1.12,-0.48 2.152,-1.186 3.102,-2.123 L 5.519,6.483 7.408,8.281 7.131,8.544 C 5.858,9.759 4.541,10.651 3.18,11.21 1.825,11.768 0.378,12.046 -1.151,12.046 l -0.002,0 -10e-4,0 -0.003,0 c -1.887,0 -3.597,-0.419 -5.107,-1.261 C -7.773,9.945 -8.97,8.769 -9.835,7.278 -10.7,5.789 -11.136,4.168 -11.136,2.44 l 0,-0.005 0,0 0,0 0,-0.002 c 0,-1.16 0.189,-2.26 0.568,-3.289 0.379,-1.031 0.948,-1.99 1.701,-2.874 0.978,-1.15 2.141,-2.019 3.475,-2.596 1.335,-0.577 2.838,-0.862 4.499,-0.862 l 0.002,0 c 1.371,0 2.616,0.206 3.729,0.624 1.112,0.417 2.091,1.048 2.923,1.885 0.833,0.836 1.463,1.824 1.882,2.952 0.419,1.127 0.63,2.392 0.638,3.788 L 8.284,2.426 0,2.426 0,0 z"
                   inkscape:connector-curvature="0" />
              </g>
            </g>
          </g>
          <g
             transform="matrix(1.7344849,0,0,1.7344849,352.9988,183.25186)"
             id="g3075">
            <path
               id="path3077"
               style="fill:#112552;fill-opacity:1;fill-rule:nonzero;stroke:none"
               d="m 0,0 1.848,0 0,-5.432 0.792,0 0,5.432 1.857,0 0,0.67 L 0,0.67 0,0 z"
               inkscape:connector-curvature="0" />
          </g>
          <g
             id="g3079"
             transform="matrix(1.7344849,0,0,1.7344849,-382.85695,-91.416491)">
            <g
               clip-path="url(#clipPath3083)"
               id="g3081">
              <g
                 transform="translate(431.5853,157.4055)"
                 id="g3087">
                <path
                   id="path3089"
                   style="fill:#112552;fill-opacity:1;fill-rule:nonzero;stroke:none"
                   d="M 0,0 C -0.298,0 -0.577,-0.091 -0.812,-0.225 -1.055,-0.361 -1.253,-0.56 -1.378,-0.787 l -0.019,0 0,2.734 -0.793,0 0,-6.427 0.793,0 0,2.644 c 0,0.154 0.009,0.271 0.054,0.38 0.144,0.434 0.55,0.796 1.063,0.796 0.749,0 1.01,-0.599 1.01,-1.304 l 0,-2.516 0.792,0 0,2.608 C 1.522,-0.361 0.586,0 0,0"
                   inkscape:connector-curvature="0" />
              </g>
              <g
                 transform="translate(436.1263,157.4055)"
                 id="g3091">
                <path
                   id="path3093"
                   style="fill:#112552;fill-opacity:1;fill-rule:nonzero;stroke:none"
                   d="m 0,0 c -1.271,0 -2.045,-1.039 -2.045,-2.361 0,-1.322 0.803,-2.218 2.144,-2.218 0.694,0 1.171,0.153 1.451,0.281 l -0.135,0.57 c -0.298,-0.127 -0.64,-0.228 -1.208,-0.228 -0.793,0 -1.478,0.445 -1.496,1.522 l 3.065,0 c 0.008,0.08 0.025,0.207 0.025,0.372 C 1.801,-1.259 1.424,0 0,0 m -1.28,-1.863 c 0.064,0.552 0.415,1.293 1.217,1.293 0.892,0 1.108,-0.786 1.099,-1.293 l -2.316,0 z"
                   inkscape:connector-curvature="0" />
              </g>
              <g
                 transform="translate(444.6671,156.4745)"
                 id="g3095">
                <path
                   id="path3097"
                   style="fill:#112552;fill-opacity:1;fill-rule:nonzero;stroke:none"
                   d="M 0,0 C 0,-0.952 0.018,-1.693 0.09,-2.508 L 0.074,-2.516 c -0.29,0.623 -0.642,1.267 -1.092,1.982 l -1.946,3.086 -0.856,0 0,-6.101 0.738,0 0,2.608 c 0,1.013 -0.017,1.745 -0.062,2.516 l 0.027,0.01 c 0.306,-0.662 0.711,-1.359 1.135,-2.04 l 1.929,-3.094 0.792,0 0,6.101 L 0,2.552 0,0 z"
                   inkscape:connector-curvature="0" />
              </g>
              <g
                 transform="translate(448.4793,157.4055)"
                 id="g3099">
                <path
                   id="path3101"
                   style="fill:#112552;fill-opacity:1;fill-rule:nonzero;stroke:none"
                   d="m 0,0 c -1.271,0 -2.046,-1.039 -2.046,-2.361 0,-1.322 0.801,-2.218 2.144,-2.218 0.694,0 1.171,0.153 1.45,0.281 l -0.135,0.57 c -0.296,-0.127 -0.64,-0.228 -1.207,-0.228 -0.793,0 -1.477,0.445 -1.496,1.522 l 3.064,0 c 0.008,0.08 0.027,0.207 0.027,0.372 C 1.801,-1.259 1.422,0 0,0 m -1.28,-1.863 c 0.062,0.552 0.414,1.293 1.217,1.293 0.891,0 1.107,-0.786 1.098,-1.293 l -2.315,0 z"
                   inkscape:connector-curvature="0" />
              </g>
              <g
                 transform="translate(455.6946,155.1072)"
                 id="g3103">
                <path
                   id="path3105"
                   style="fill:#112552;fill-opacity:1;fill-rule:nonzero;stroke:none"
                   d="m 0,0 c -0.144,-0.516 -0.26,-0.978 -0.332,-1.42 l -0.028,0 c -0.099,0.442 -0.225,0.904 -0.387,1.428 l -0.676,2.193 -0.667,0 -0.712,-2.23 C -2.945,-0.506 -3.09,-0.978 -3.188,-1.42 l -0.028,0 c -0.081,0.45 -0.198,0.904 -0.324,1.391 l -0.577,2.23 -0.811,0 1.316,-4.383 0.721,0 0.702,2.082 c 0.153,0.471 0.289,0.924 0.397,1.449 l 0.018,0 c 0.108,-0.516 0.234,-0.951 0.387,-1.441 l 0.667,-2.09 0.72,0 1.407,4.383 -0.785,0 L 0,0 z"
                   inkscape:connector-curvature="0" />
              </g>
            </g>
          </g>
          <g
             transform="matrix(1.7344849,0,0,1.7344849,414.71177,173.82979)"
             id="g3107">
            <path
               id="path3109"
               style="fill:#112552;fill-opacity:1;fill-rule:nonzero;stroke:none"
               d="m 0,0 0.785,0 0,2.762 2.297,0 0,0.651 -2.297,0 0,2.028 2.486,0 0,0.661 L 0,6.102 0,0 z"
               inkscape:connector-curvature="0" />
          </g>
          <g
             id="g3111"
             transform="matrix(1.7344849,0,0,1.7344849,-382.85695,-91.416491)">
            <g
               clip-path="url(#clipPath3115)"
               id="g3113">
              <g
                 transform="translate(465.687,157.4055)"
                 id="g3119">
                <path
                   id="path3121"
                   style="fill:#112552;fill-opacity:1;fill-rule:nonzero;stroke:none"
                   d="m 0,0 c -1.207,0 -2.161,-0.859 -2.161,-2.327 0,-1.384 0.91,-2.252 2.089,-2.252 1.054,0 2.171,0.706 2.171,2.327 C 2.099,-0.913 1.253,0 0,0 m -0.036,-3.982 c -0.774,0 -1.324,0.724 -1.324,1.684 0,0.833 0.406,1.701 1.343,1.701 0.937,0 1.306,-0.942 1.306,-1.684 0,-0.987 -0.568,-1.701 -1.325,-1.701"
                   inkscape:connector-curvature="0" />
              </g>
              <g
                 transform="translate(469.5071,156.4462)"
                 id="g3123">
                <path
                   id="path3125"
                   style="fill:#112552;fill-opacity:1;fill-rule:nonzero;stroke:none"
                   d="m 0,0 -0.036,0 -0.026,0.861 -0.694,0 C -0.729,0.453 -0.72,0.01 -0.72,-0.506 l 0,-3.015 0.784,0 0,2.336 c 0,0.135 0.017,0.262 0.036,0.371 0.108,0.597 0.504,1.022 1.063,1.022 0.108,0 0.189,-0.009 0.271,-0.026 l 0,0.751 C 1.361,0.951 1.298,0.959 1.208,0.959 0.676,0.959 0.199,0.589 0,0"
                   inkscape:connector-curvature="0" />
              </g>
              <g
                 transform="translate(473.7602,156.764)"
                 id="g3127">
                <path
                   id="path3129"
                   style="fill:#112552;fill-opacity:1;fill-rule:nonzero;stroke:none"
                   d="M 0,0 C 0.434,0 0.731,-0.1 0.92,-0.209 L 1.1,0.407 C 0.883,0.514 0.469,0.633 0,0.633 c -1.423,0 -2.342,-0.978 -2.342,-2.326 0,-1.34 0.856,-2.245 2.17,-2.245 0.587,0 1.046,0.154 1.254,0.262 l -0.136,0.599 c -0.225,-0.1 -0.523,-0.217 -0.973,-0.217 -0.865,0 -1.513,0.624 -1.513,1.637 C -1.54,-0.744 -1,0 0,0"
                   inkscape:connector-curvature="0" />
              </g>
              <g
                 transform="translate(477.4992,157.4055)"
                 id="g3131">
                <path
                   id="path3133"
                   style="fill:#112552;fill-opacity:1;fill-rule:nonzero;stroke:none"
                   d="m 0,0 c -1.27,0 -2.044,-1.039 -2.044,-2.361 0,-1.322 0.801,-2.218 2.144,-2.218 0.693,0 1.171,0.153 1.451,0.281 l -0.136,0.57 C 1.117,-3.855 0.776,-3.956 0.207,-3.956 c -0.791,0 -1.477,0.445 -1.495,1.522 l 3.064,0 c 0.009,0.08 0.027,0.207 0.027,0.372 C 1.803,-1.259 1.424,0 0,0 m -1.279,-1.863 c 0.063,0.552 0.415,1.293 1.216,1.293 0.893,0 1.108,-0.786 1.099,-1.293 l -2.315,0 z"
                   inkscape:connector-curvature="0" />
              </g>
            </g>
          </g>
          <path
             id="path3135"
             style="fill:#112552;fill-opacity:1;fill-rule:nonzero;stroke:none"
             d="m 453.49954,173.82962 1.37545,0 0,7.60051 -1.37545,0 0,-7.60051 z"
             inkscape:connector-curvature="0" />
          <g
             id="g3137"
             transform="matrix(1.7344849,0,0,1.7344849,-382.85695,-91.416491)">
            <g
               clip-path="url(#clipPath3141)"
               id="g3139">
              <g
                 transform="translate(482.5909,159.0363)"
                 id="g3145">
                <path
                   id="path3147"
                   style="fill:#112552;fill-opacity:1;fill-rule:nonzero;stroke:none"
                   d="m 0,0 c -0.289,0 -0.495,-0.217 -0.495,-0.499 0,-0.27 0.197,-0.488 0.477,-0.488 0.315,0 0.514,0.218 0.504,0.488 C 0.486,-0.217 0.297,0 0,0"
                   inkscape:connector-curvature="0" />
              </g>
              <g
                 transform="translate(486.4723,157.4055)"
                 id="g3149">
                <path
                   id="path3151"
                   style="fill:#112552;fill-opacity:1;fill-rule:nonzero;stroke:none"
                   d="m 0,0 c -0.72,0 -1.224,-0.407 -1.441,-0.823 l -0.018,0 -0.045,0.725 -0.702,0 c 0.027,-0.362 0.035,-0.733 0.035,-1.187 l 0,-3.195 0.793,0 0,2.634 c 0,0.136 0.018,0.272 0.053,0.371 0.137,0.445 0.542,0.815 1.064,0.815 0.748,0 1.01,-0.588 1.01,-1.295 l 0,-2.525 0.793,0 0,2.617 C 1.542,-0.361 0.604,0 0,0"
                   inkscape:connector-curvature="0" />
              </g>
            </g>
          </g>
          <path
             id="path3153"
             style="fill:#112552;fill-opacity:1;fill-rule:nonzero;stroke:none"
             d="m 469.18969,173.82962 1.36157,0 0,10.58382 -1.36157,0 0,-10.58382 z"
             inkscape:connector-curvature="0" />
          <g
             id="g3155"
             transform="matrix(1.7344849,0,0,1.7344849,-382.85695,-91.416491)">
            <g
               clip-path="url(#clipPath3159)"
               id="g3157">
              <g
                 transform="translate(494.085,156.4462)"
                 id="g3163">
                <path
                   id="path3165"
                   style="fill:#112552;fill-opacity:1;fill-rule:nonzero;stroke:none"
                   d="m 0,0 -0.035,0 -0.027,0.861 -0.695,0 C -0.729,0.453 -0.72,0.01 -0.72,-0.506 l 0,-3.015 0.785,0 0,2.336 c 0,0.135 0.017,0.262 0.034,0.371 0.112,0.597 0.505,1.022 1.065,1.022 0.108,0 0.189,-0.009 0.27,-0.026 l 0,0.751 C 1.364,0.951 1.299,0.959 1.209,0.959 0.678,0.959 0.199,0.589 0,0"
                   inkscape:connector-curvature="0" />
              </g>
              <g
                 transform="translate(498.1578,157.4055)"
                 id="g3167">
                <path
                   id="path3169"
                   style="fill:#112552;fill-opacity:1;fill-rule:nonzero;stroke:none"
                   d="m 0,0 c -1.206,0 -2.162,-0.859 -2.162,-2.327 0,-1.384 0.91,-2.252 2.092,-2.252 1.054,0 2.171,0.706 2.171,2.327 C 2.101,-0.913 1.253,0 0,0 m -0.034,-3.982 c -0.776,0 -1.324,0.724 -1.324,1.684 0,0.833 0.405,1.701 1.342,1.701 0.937,0 1.306,-0.942 1.306,-1.684 0,-0.987 -0.568,-1.701 -1.324,-1.701"
                   inkscape:connector-curvature="0" />
              </g>
              <g
                 transform="translate(503.4297,157.4055)"
                 id="g3171">
                <path
                   id="path3173"
                   style="fill:#112552;fill-opacity:1;fill-rule:nonzero;stroke:none"
                   d="m 0,0 c -0.721,0 -1.225,-0.407 -1.441,-0.823 l -0.018,0 -0.045,0.725 -0.703,0 c 0.026,-0.362 0.036,-0.733 0.036,-1.187 l 0,-3.195 0.793,0 0,2.634 c 0,0.136 0.018,0.272 0.053,0.371 0.135,0.445 0.542,0.815 1.064,0.815 0.747,0 1.009,-0.588 1.009,-1.295 l 0,-2.525 0.794,0 0,2.617 C 1.542,-0.361 0.605,0 0,0"
                   inkscape:connector-curvature="0" />
              </g>
              <g
                 transform="translate(510.6559,159.1267)"
                 id="g3175">
                <path
                   id="path3177"
                   style="fill:#112552;fill-opacity:1;fill-rule:nonzero;stroke:none"
                   d="m 0,0 c -1.621,0 -2.82,-1.268 -2.82,-3.204 0,-1.849 1.125,-3.096 2.73,-3.096 1.55,0 2.82,1.113 2.82,3.212 C 2.73,-1.277 1.657,0 0,0 m -0.045,-5.657 c -1.233,0 -1.94,1.167 -1.94,2.471 0,1.337 0.652,2.544 1.948,2.544 1.306,0 1.938,-1.27 1.938,-2.481 0,-1.385 -0.703,-2.534 -1.946,-2.534"
                   inkscape:connector-curvature="0" />
              </g>
              <g
                 transform="translate(515.0986,156.4462)"
                 id="g3179">
                <path
                   id="path3181"
                   style="fill:#112552;fill-opacity:1;fill-rule:nonzero;stroke:none"
                   d="m 0,0 -0.037,0 -0.027,0.861 -0.693,0 c 0.026,-0.408 0.036,-0.851 0.036,-1.367 l 0,-3.015 0.783,0 0,2.336 c 0,0.135 0.018,0.262 0.037,0.371 0.107,0.597 0.505,1.022 1.062,1.022 0.109,0 0.189,-0.009 0.271,-0.026 l 0,0.751 C 1.36,0.951 1.297,0.959 1.206,0.959 0.674,0.959 0.196,0.589 0,0"
                   inkscape:connector-curvature="0" />
              </g>
              <g
                 transform="translate(519.0533,157.4055)"
                 id="g3183">
                <path
                   id="path3185"
                   style="fill:#112552;fill-opacity:1;fill-rule:nonzero;stroke:none"
                   d="m 0,0 c -1.27,0 -2.045,-1.039 -2.045,-2.361 0,-1.322 0.802,-2.218 2.142,-2.218 0.695,0 1.174,0.153 1.454,0.281 l -0.137,0.57 C 1.118,-3.855 0.776,-3.956 0.208,-3.956 c -0.794,0 -1.478,0.445 -1.496,1.522 l 3.062,0 c 0.01,0.08 0.027,0.207 0.027,0.372 C 1.801,-1.259 1.424,0 0,0 m -1.279,-1.863 c 0.061,0.552 0.414,1.293 1.216,1.293 0.892,0 1.108,-0.786 1.098,-1.293 l -2.314,0 z"
                   inkscape:connector-curvature="0" />
              </g>
            </g>
          </g>
          <g
             transform="matrix(1.7344849,0,0,1.7344849,353.15941,190.10169)"
             id="g3187">
            <path
               id="path3189"
               style="fill:#112552;fill-opacity:1;fill-rule:nonzero;stroke:none"
               d="m 0,0 2.94,0 0,6.894 5.93,0 0,2.403 -5.93,0 0,4.466 6.383,0 0,2.427 L 0,16.19 0,0 z"
               inkscape:connector-curvature="0" />
          </g>
          <g
             id="g3191"
             transform="matrix(1.7344849,0,0,1.7344849,-382.85695,-91.416491)">
            <g
               clip-path="url(#clipPath3195)"
               id="g3193">
              <g
                 transform="translate(446.5587,168.264)"
                 id="g3199">
                <path
                   id="path3201"
                   style="fill:#112552;fill-opacity:1;fill-rule:nonzero;stroke:none"
                   d="m 0,0 c 0,3.555 -2.319,6.005 -5.787,6.005 -3.513,0 -6.023,-2.354 -6.023,-6.197 0,-3.771 2.558,-6.029 5.833,-6.029 C -3.012,-6.221 0,-4.299 0,0 m -5.882,-4.083 c -1.768,0 -2.893,1.705 -2.893,3.964 0,1.944 0.837,3.986 2.917,3.986 2.008,0 2.821,-2.113 2.821,-3.939 0,-2.377 -1.171,-4.011 -2.845,-4.011"
                   inkscape:connector-curvature="0" />
              </g>
              <g
                 transform="translate(448.7413,162.3065)"
                 id="g3203">
                <path
                   id="path3205"
                   style="fill:#112552;fill-opacity:1;fill-rule:nonzero;stroke:none"
                   d="m 0,0 2.939,0 0,6.077 c 0,0.313 0.025,0.625 0.073,0.889 C 3.275,8.312 4.255,9.2 5.642,9.2 6,9.2 6.263,9.177 6.526,9.129 l 0,2.761 c -0.239,0.049 -0.406,0.072 -0.693,0.072 -1.266,0 -2.63,-0.841 -3.203,-2.474 l -0.073,0 -0.119,2.21 -2.534,0 C -0.023,10.666 0,9.512 0,7.927 L 0,0 z"
                   inkscape:connector-curvature="0" />
              </g>
              <g
                 transform="translate(463.6405,162.3546)"
                 id="g3207">
                <path
                   id="path3209"
                   style="fill:#112552;fill-opacity:1;fill-rule:nonzero;stroke:none"
                   d="M 0,0 -0.048,2.234 C -0.382,2.138 -0.669,2.115 -1.195,2.115 c -1.124,0 -1.507,0.719 -1.507,2.16 l 0,5.165 2.797,0 0,2.21 -2.797,0 0,3.003 -2.893,-0.817 0,-2.186 -1.649,0 0,-2.21 1.649,0 0,-5.501 c 0,-1.537 0.287,-2.616 0.933,-3.29 0.551,-0.601 1.435,-0.96 2.535,-0.96 0.907,0 1.696,0.142 2.127,0.311"
                   inkscape:connector-curvature="0" />
              </g>
              <g
                 transform="translate(471.2468,164.3007)"
                 id="g3211">
                <path
                   id="path3213"
                   style="fill:#112552;fill-opacity:1;fill-rule:nonzero;stroke:none"
                   d="m 0,0 c -1.888,0 -3.514,0.912 -3.585,3.027 l 7.793,0 c 0.049,0.264 0.096,0.696 0.096,1.249 0,2.57 -1.243,5.692 -5.02,5.692 -3.73,0 -5.69,-3.049 -5.69,-6.293 0,-3.579 2.223,-5.91 6.001,-5.91 1.672,0 3.06,0.313 4.063,0.746 L 3.228,0.528 C 2.32,0.216 1.363,0 0,0 m -0.884,7.95 c 1.961,0 2.438,-1.777 2.414,-2.858 l -5.115,0 c 0.119,1.2 0.885,2.858 2.701,2.858"
                   inkscape:connector-curvature="0" />
              </g>
              <g
                 transform="translate(485.2392,165.7415)"
                 id="g3215">
                <path
                   id="path3217"
                   style="fill:#112552;fill-opacity:1;fill-rule:nonzero;stroke:none"
                   d="M 0,0 C -0.024,1.73 -0.98,2.81 -3.107,3.556 -4.59,4.108 -5.14,4.445 -5.14,5.189 c 0,0.721 0.574,1.249 1.626,1.249 1.027,0 1.984,-0.385 2.462,-0.673 l 0.598,2.067 c -0.693,0.383 -1.817,0.695 -3.108,0.695 -2.702,0 -4.399,-1.585 -4.399,-3.65 0,-1.394 0.932,-2.642 3.204,-3.411 1.435,-0.529 1.912,-0.914 1.912,-1.706 0,-0.769 -0.574,-1.321 -1.864,-1.321 -1.053,0 -2.32,0.457 -2.965,0.864 l -0.598,-2.161 c 0.861,-0.481 2.128,-0.818 3.537,-0.818 C -1.65,-3.676 0,-2.138 0,0"
                   inkscape:connector-curvature="0" />
              </g>
              <g
                 transform="translate(493.2527,164.397)"
                 id="g3219">
                <path
                   id="path3221"
                   style="fill:#112552;fill-opacity:1;fill-rule:nonzero;stroke:none"
                   d="M 0,0 C -2.008,0 -3.562,1.369 -3.562,3.771 -3.586,5.909 -2.247,7.566 0,7.566 1.053,7.566 1.744,7.35 2.223,7.109 L 2.751,9.344 C 2.08,9.633 0.98,9.872 -0.096,9.872 c -4.087,0 -6.477,-2.714 -6.477,-6.222 0,-3.627 2.365,-5.981 6,-5.981 1.457,0 2.677,0.313 3.3,0.601 L 2.32,0.456 C 1.744,0.216 1.006,0 0,0"
                   inkscape:connector-curvature="0" />
              </g>
              <g
                 transform="translate(508.3443,165.8145)"
                 id="g3223">
                <path
                   id="path3225"
                   style="fill:#112552;fill-opacity:1;fill-rule:nonzero;stroke:none"
                   d="m 0,0 0,8.19 -2.94,0 0,-7.061 c 0,-0.336 -0.048,-0.673 -0.168,-0.913 -0.289,-0.769 -1.052,-1.586 -2.249,-1.586 -1.552,0 -2.174,1.249 -2.174,3.195 l 0,6.365 -2.939,0 0,-6.87 c 0,-3.819 1.934,-5.091 4.038,-5.091 2.105,0 3.253,1.2 3.756,2.017 l 0.069,0 0.144,-1.754 2.559,0 C 0.047,-2.546 0,-1.394 0,0"
                   inkscape:connector-curvature="0" />
              </g>
              <g
                 transform="translate(516.2401,174.2689)"
                 id="g3227">
                <path
                   id="path3229"
                   style="fill:#112552;fill-opacity:1;fill-rule:nonzero;stroke:none"
                   d="m 0,0 c -3.729,0 -5.689,-3.05 -5.689,-6.293 0,-3.579 2.223,-5.91 6,-5.91 1.673,0 3.061,0.313 4.063,0.746 L 3.946,-9.44 C 3.036,-9.752 2.08,-9.968 0.717,-9.968 c -1.888,0 -3.514,0.912 -3.584,3.027 l 7.793,0 c 0.048,0.264 0.093,0.696 0.093,1.248 C 5.019,-3.122 3.775,0 0,0 m -2.867,-4.876 c 0.117,1.2 0.884,2.858 2.7,2.858 1.96,0 2.438,-1.777 2.414,-2.858 l -5.114,0 z"
                   inkscape:connector-curvature="0" />
              </g>
            </g>
          </g>
        </g>
      </g>
    </g>
  </g>
</svg>
