<svg id="Layer_1" data-name="Layer 1" xmlns="http://www.w3.org/2000/svg" viewBox="0 0 362.01 66.74"><path d="M34,14.32h7v1.74H32.2V0H34Z"/><path d="M56.34,1.77H47.28V7h8.09V8.81H47.28v5.51h9.36v1.74H45.44V0h10.9Z"/><path d="M71.92,12H63.15l-1.79,4.06h-2L66.62,0h1.9L75.7,16.06h-2Zm-.78-1.77L67.51,2.09l-3.58,8.14Z"/><path d="M90.11,16.06l-3.33-5.12c-.46,0-.82.05-1.08.05H81.44v5.07H79.6V0h6.1a7,7,0,0,1,4.67,1.41,4.94,4.94,0,0,1,1.67,4,5.64,5.64,0,0,1-.93,3.31,5.09,5.09,0,0,1-2.68,1.9l3.77,5.46ZM81.44,9.22H85.7a5.26,5.26,0,0,0,3.39-1,3.41,3.41,0,0,0,1.18-2.82A3.25,3.25,0,0,0,89.09,2.7a5.39,5.39,0,0,0-3.39-.93H81.44Z"/><path d="M110.92,16.06H109L99.4,3.17V16.06H97.57V0h1.9l9.64,12.92V0h1.81Z"/><path d="M20.4,32.17c2.08,1.77,3.11,4.48,3.11,8.13s-1.06,6.34-3.19,8-5.39,2.55-9.77,2.55H6.61v8.26H0V29.52H10.46Q17.29,29.52,20.4,32.17ZM15.55,43.82a5.7,5.7,0,0,0,1.19-3.9,4.13,4.13,0,0,0-1.55-3.64,8.51,8.51,0,0,0-4.81-1.08H6.61v10h4.45C13.26,45.16,14.76,44.71,15.55,43.82Z"/><path d="M47.07,29.52h6.61V59.14H47.07V47.49H35.29V59.14H28.68V29.52h6.61V41.89H47.07Z"/><path d="M85.88,55.05a16.15,16.15,0,0,1-22.12,0,14.64,14.64,0,0,1-4.49-10.91,14.64,14.64,0,0,1,4.49-10.91,16.13,16.13,0,0,1,22.12,0,14.64,14.64,0,0,1,4.49,10.91A14.64,14.64,0,0,1,85.88,55.05ZM83.63,44.16a9.68,9.68,0,0,0-2.54-6.76,8.4,8.4,0,0,0-12.5,0,10.24,10.24,0,0,0,0,13.5,8.44,8.44,0,0,0,12.5,0A9.6,9.6,0,0,0,83.63,44.16Z"/><path d="M107.7,35.24v23.9h-6.61V35.24H92.7V29.52h23.39v5.72Z"/><path d="M197.13,44.05h6.65V54.56q-4.41,4.92-12.2,4.92a15,15,0,0,1-11-4.33,14.59,14.59,0,0,1-4.43-10.9,14.73,14.73,0,0,1,4.51-11,15,15,0,0,1,10.89-4.41A16.1,16.1,0,0,1,202.68,33l-3.43,5a13.11,13.11,0,0,0-3.67-2.4A9.75,9.75,0,0,0,192,35a8.66,8.66,0,0,0-6.35,2.56A9.07,9.07,0,0,0,183,44.27,9.17,9.17,0,0,0,185.5,51a8,8,0,0,0,5.91,2.52,11.42,11.42,0,0,0,5.72-1.31Z"/><path d="M234.69,39.35q0,7.13-5.63,9.2l7.5,10.59h-8.14l-6.56-9.45h-4.58v9.45h-6.61V29.52H221.9q6.9,0,9.85,2.33T234.69,39.35Zm-8,3.52a4.48,4.48,0,0,0,1.23-3.5,3.76,3.76,0,0,0-1.27-3.28,8.17,8.17,0,0,0-4.45-.89h-5V44h4.83C224.37,44,225.91,43.6,226.73,42.87Z"/><path d="M264.57,59.14l-2.75-6.4H249.4l-2.75,6.4h-7l12.79-29.62h6.4L271.6,59.14Zm-8.94-20.81-3.73,8.61h7.42Z"/><path d="M296.43,32.17q3.12,2.65,3.12,8.13t-3.2,8q-3.19,2.55-9.77,2.55h-3.94v8.26H276V29.52H286.5Q293.33,29.52,296.43,32.17Zm-4.85,11.65a5.7,5.7,0,0,0,1.19-3.9,4.13,4.13,0,0,0-1.55-3.64,8.49,8.49,0,0,0-4.81-1.08h-3.77v10h4.45C289.3,45.16,290.79,44.71,291.58,43.82Z"/><path d="M324.11,29.52h6.6V59.14h-6.6V47.49H312.33V59.14h-6.61V29.52h6.61V41.89h11.78Z"/><path d="M351.75,59.14h-6.6V47.44L334.89,29.52h7.16l6.4,11,6.4-11H362L351.75,47.44Z"/><path d="M154.47,40l8.12-13.84-.13-.14a23.54,23.54,0,0,0-12.27-6.13,21.73,21.73,0,0,0-7.2-.1Z"/><path d="M153,48.82l16.09.11a3.37,3.37,0,0,0,.12-.41,23.07,23.07,0,0,0-.93-13.82,21,21,0,0,0-3.45-6.06Z"/><path d="M147.9,34.79l-8.15-14.34a23.4,23.4,0,0,0-11.49,7.39,22.26,22.26,0,0,0-4,6.79Z"/><path d="M145.27,51.9l7.83,13.79h0a23.43,23.43,0,0,0,10.45-6.62,22.07,22.07,0,0,0,4.45-7Z"/><path d="M139.53,37.87l-16.29-.11a23.49,23.49,0,0,0,1.65,15.42,19.77,19.77,0,0,0,2.92,4.67Z"/><path d="M138.35,46.08,130,60.26a3.48,3.48,0,0,0,.54.57,24.11,24.11,0,0,0,12,5.6,20.58,20.58,0,0,0,7.34,0Z"/></svg>