<svg version="1.2" xmlns="http://www.w3.org/2000/svg" viewBox="0 0 1582 1582" width="1582" height="1582">
	<title>logo (19)-svg</title>
	<style>
		.s0 { fill: #d71638 } 
		.s1 { fill: #ffffff } 
	</style>
	<g id="Layer_2">
		<g id="Layer_1-2">
			<path id="Layer" class="s0" d="m0 0h1581v1581h-1581z"/>
			<path id="Layer" class="s1" d="m1142.6 237c46.3 39.1-10.7 158.3-64.3 233.9-96.3 135.6-175.7 184.1-228.7 177.3q2.3-2.7 4.5-5.4 2.1-2.7 4.2-5.5 2.1-2.8 4.1-5.7 2-2.8 3.9-5.8c49.5-75.8 68-155 53.9-253.9 53.5-51.5 183.6-167.4 222.4-134.9z"/>
			<path id="Layer" class="s1" d="m920.3 371.9c-11.2 11.2-19.2 19-21.9 22.3-129 143.8-108.1 218-84.1 238.4q3.8 3.2 7.9 5.8 4.2 2.6 8.7 4.6 4.5 2 9.3 3.3 4.7 1.3 9.6 1.9-5.8 6.9-12.3 13.3-6.5 6.3-13.7 12-7.1 5.6-14.7 10.5-7.7 4.9-15.8 9.1c-17.9-33.5-47.8-73.7-95.3-120.9-6.3-6.3-36.6-33.5-74.9-63.1 6.5-150.6 81.4-374 143.7-377.1 59.4-3 134.9 126.1 153.5 239.9z"/>
			<path id="Layer" class="s1" d="m793.2 693.1c36.2 67.9 23.2 108.3 7.3 123.6-48.2 46.2-148.9 18.2-286.2-153-60.8-75.8-127.7-197.3-81.7-240.8 29.9-27.8 122.7 33.5 190.4 86.2 0 2.9 0 5.6 0 8.6-4.7 84.9 10.5 174.2 91.4 190.2 17.1 3.3 46.2 1.1 77.1-13.8z"/>
			<path id="Layer" class="s1" d="m443.5 885.4l-0.3 1.2-49.3 213.8h-31.4l-0.4-1.4-47-164.8-46 166.2h-32.3l-0.3-1.5-48.8-213.5h30.2l0.3 1.4 36.5 162.9 46.3-164.3h28.7l0.4 1.3 48 163.5 36.8-164.8h28.6z"/>
			<path id="Layer" fill-rule="evenodd" class="s1" d="m1227.8 1062.7c0 8.7 0.6 17.8 1.1 25.7l0.7 11.7h-29.1l-0.5-14.1q-1.7 1.7-3.4 3.2-1.8 1.4-3.6 2.8-1.9 1.4-3.8 2.6-2 1.2-4 2.3-3.6 1.8-7.3 3.2-3.7 1.5-7.6 2.4-3.9 0.9-7.8 1.4-4 0.5-8 0.4-3.9 0.1-7.8-0.4-4-0.4-7.8-1.4-3.8-1-7.5-2.4-3.6-1.5-7.1-3.4-3.1-1.8-5.9-3.9-2.9-2.2-5.5-4.6-2.5-2.5-4.8-5.3-2.2-2.7-4.2-5.7-3.6-6.1-6.4-12.7-2.8-6.6-4.7-13.5-1.8-6.8-2.7-13.9-0.8-7.1-0.7-14.2 0-5.4 0.4-10.8 0.5-5.4 1.5-10.6 1-5.3 2.5-10.5 1.5-5.2 3.6-10.1c2.1-5.8 5.2-11.1 9-15.9 3.8-4.8 8.3-9 13.4-12.4 5.1-3.4 10.7-6 16.6-7.7 5.9-1.7 12-2.5 18.1-2.3q4.1 0 8.1 0.4 4 0.4 7.9 1.3 3.9 0.9 7.7 2.3 3.8 1.3 7.5 3.1 1.9 0.9 3.7 2 1.9 1.1 3.6 2.3 1.8 1.2 3.5 2.6 1.7 1.3 3.3 2.7v-74.9h28.2v178.3m-28.8-42.7q0 0 0 0 0 0.1 0 0.1zm0 0q0-3.6-0.3-7.1-0.3-3.7-1-7.3-0.8-3.5-1.8-7-1.1-3.5-2.5-6.9-1.2-2.9-2.9-5.6-1.7-2.7-3.9-5.1-2.1-2.4-4.6-4.3-2.5-2-5.4-3.5-2.2-1.1-4.5-1.9-2.4-0.8-4.8-1.3-2.4-0.5-4.9-0.8-2.4-0.2-4.9-0.2-2.3 0-4.7 0.2-2.3 0.3-4.6 0.8-2.2 0.6-4.4 1.4-2.2 0.9-4.2 2-1.8 1.1-3.5 2.4-1.6 1.2-3.1 2.7-1.5 1.4-2.7 3-1.3 1.7-2.4 3.4-2.3 4.1-4 8.5-1.7 4.4-2.8 9-1.1 4.5-1.5 9.2-0.5 4.7-0.3 9.4-0.1 2.8 0.1 5.6 0.1 2.8 0.4 5.6 0.2 2.8 0.6 5.5 0.4 2.8 1 5.6 0.5 2.7 1.2 5.3 0.7 2.6 1.7 5.1 0.9 2.6 2.1 5 1.2 2.5 2.6 4.8 0.8 1.4 1.8 2.7 0.9 1.2 2 2.4 1.1 1.2 2.3 2.2 1.2 1.1 2.5 2 1.9 1.3 4 2.3 2.1 0.9 4.3 1.6 2.2 0.6 4.5 0.9 2.2 0.3 4.5 0.3 2.8 0 5.5-0.2 2.7-0.3 5.4-0.9 2.7-0.6 5.3-1.5 2.5-0.9 5-2.1 2-1.1 3.9-2.4 1.8-1.4 3.5-2.9 1.7-1.6 3.1-3.3 1.5-1.8 2.7-3.8 2.6-4.6 4.6-9.5 1.9-5 3.1-10.2 1.2-5.2 1.7-10.5 0.5-5.3 0.3-10.6z"/>
			<path id="Layer" fill-rule="evenodd" class="s1" d="m539.2 949.4q3.4 1.6 6.6 3.6 3.1 2.1 6 4.4 2.9 2.4 5.6 5 2.6 2.7 4.9 5.7 4.4 5.9 7.7 12.5 3.4 6.5 5.7 13.5 2.2 7.1 3.3 14.4 1 7.3 0.9 14.6 0 5.6-0.6 11.1-0.6 5.5-1.8 10.9-1.2 5.4-3.1 10.6-1.9 5.2-4.3 10.2-2.5 5-5.7 9.5-3.3 4.5-7.2 8.5-3.9 3.9-8.5 7.2-4.5 3.3-9.5 5.8c-5.1 2.3-10.4 4.1-15.9 5.3-5.5 1.1-11 1.7-16.6 1.7-5.6 0-11.2-0.6-16.7-1.7-5.5-1.2-10.8-3-15.9-5.3q-3.3-1.7-6.5-3.7-3.1-2-6-4.4-2.8-2.4-5.4-5.1-2.6-2.6-4.9-5.6-4.4-5.9-7.7-12.4-3.4-6.6-5.7-13.6-2.2-7-3.3-14.3-1-7.3-0.9-14.7 0-5.5 0.6-11 0.5-5.5 1.8-10.9 1.2-5.4 3.1-10.7 1.9-5.2 4.3-10.1 2.5-5 5.7-9.6 3.3-4.5 7.2-8.5 3.9-3.9 8.5-7.2 4.5-3.2 9.5-5.7c5.1-2.3 10.4-4.1 15.9-5.3 5.4-1.2 11-1.8 16.6-1.8 5.6 0 11.2 0.6 16.7 1.8 5.5 1.2 10.8 3 15.9 5.3m-12.9 123.3q2-1.2 3.9-2.6 1.9-1.4 3.6-3 1.6-1.6 3.1-3.4 1.5-1.8 2.8-3.8 2.6-4.1 4.6-8.5 2-4.4 3.3-9.1 1.3-4.7 2-9.5 0.6-4.8 0.5-9.7 0.1-3.6-0.3-7.2-0.3-3.7-1-7.2-0.7-3.6-1.8-7.1-1-3.5-2.4-6.9-1.4-3.2-3.2-6.3-1.8-3-4.1-5.7-2.3-2.7-5-5-2.7-2.3-5.8-4.1c-3-1.6-6.2-2.8-9.5-3.7-3.3-0.8-6.7-1.2-10.1-1.2-3.5 0-6.9 0.4-10.2 1.2-3.3 0.9-6.5 2.1-9.5 3.7q-2 1.2-3.9 2.6-1.9 1.4-3.6 3-1.6 1.6-3.1 3.3-1.5 1.8-2.8 3.8-2.6 4.1-4.6 8.5-2 4.5-3.3 9.1-1.4 4.7-2 9.5-0.7 4.9-0.6 9.7 0 3.7 0.3 7.3 0.4 3.6 1.1 7.2 0.7 3.6 1.7 7.1 1.1 3.5 2.5 6.8 1.3 3.3 3.1 6.3 1.9 3 4.2 5.7 2.3 2.7 5 5 2.7 2.3 5.7 4.2c3 1.6 6.2 2.8 9.5 3.6 3.4 0.8 6.8 1.3 10.2 1.3 3.4 0 6.8-0.5 10.1-1.3 3.3-0.8 6.5-2 9.6-3.6z"/>
			<path id="Layer" fill-rule="evenodd" class="s1" d="m705 953.9q3.2 2 6.1 4.3 2.9 2.4 5.5 5.1 2.6 2.7 4.9 5.6 4.4 5.9 7.8 12.5 3.4 6.5 5.6 13.6 2.3 7 3.4 14.3 1 7.3 0.9 14.7 0 5.5-0.6 11-0.6 5.5-1.8 10.9-1.2 5.4-3.1 10.7-1.9 5.2-4.3 10.1-2.5 5-5.8 9.6-3.2 4.5-7.1 8.5-4 3.9-8.5 7.2-4.5 3.2-9.5 5.7c-5.1 2.3-10.4 4.1-15.9 5.3-5.5 1.2-11.1 1.8-16.7 1.8-5.6 0-11.2-0.6-16.6-1.8-5.5-1.2-10.8-3-15.9-5.3q-3.4-1.6-6.5-3.6-3.2-2.1-6.1-4.4-2.9-2.4-5.5-5.1-2.7-2.6-5-5.6-4.4-5.9-7.7-12.5-3.4-6.5-5.7-13.5-2.2-7.1-3.3-14.4-1-7.3-0.9-14.6 0-5.6 0.6-11.1 0.5-5.5 1.8-10.9 1.2-5.4 3.1-10.6 1.9-5.2 4.3-10.2 2.5-5 5.7-9.5 3.3-4.6 7.2-8.5 3.9-4 8.5-7.2 4.5-3.3 9.5-5.8c5.1-2.3 10.4-4.1 15.9-5.3 5.4-1.2 11-1.8 16.6-1.8 5.6 0 11.2 0.6 16.7 1.8 5.4 1.2 10.8 3 15.9 5.3q3.3 1.7 6.5 3.7zm4.6 70.1q0.1-3.7-0.3-7.3-0.3-3.6-1-7.2-0.7-3.6-1.8-7-1-3.5-2.5-6.9-1.3-3.2-3.1-6.3-1.8-3-4.1-5.7-2.3-2.7-5-5-2.7-2.3-5.7-4.2c-3-1.6-6.2-2.8-9.6-3.6-3.3-0.9-6.7-1.3-10.1-1.3-3.4 0-6.8 0.4-10.2 1.3-3.3 0.8-6.5 2-9.5 3.6q-2 1.2-3.9 2.6-1.8 1.4-3.5 3-1.7 1.6-3.2 3.4-1.5 1.8-2.8 3.8-2.6 4.1-4.5 8.5-2 4.4-3.3 9.1-1.4 4.7-2 9.5-0.7 4.8-0.7 9.7 0 3.6 0.4 7.2 0.3 3.7 1 7.2 0.7 3.6 1.8 7.1 1 3.5 2.4 6.9 1.3 3.2 3.2 6.3 1.8 3 4.1 5.7 2.3 2.7 5 5 2.7 2.3 5.7 4.1c4.3 2.4 9.1 4 14 4.6 5 0.7 10 0.4 14.8-0.8 4.9-1.1 9.5-3.2 13.6-6 4.1-2.8 7.6-6.4 10.4-10.5q2.6-4.1 4.5-8.6 2-4.4 3.3-9.1 1.3-4.7 2-9.5 0.6-4.8 0.6-9.6z"/>
			<path id="Layer" fill-rule="evenodd" class="s1" d="m890.6 1063.1c0 9.3 0.6 18.9 1.2 27.5l0.6 10h-29.2l-0.6-14.1q-1.6 1.6-3.4 3.1-1.8 1.5-3.6 2.9-1.9 1.3-3.8 2.6-2 1.2-4 2.3-3.5 1.8-7.3 3.2-3.7 1.5-7.6 2.4-3.8 0.9-7.8 1.4-4 0.5-7.9 0.4-4 0.1-7.9-0.4-3.9-0.4-7.8-1.4-3.8-0.9-7.5-2.4-3.7-1.4-7.1-3.3-3.1-1.8-5.9-4-2.9-2.1-5.4-4.6-2.6-2.5-4.9-5.2-2.2-2.8-4.1-5.8-3.7-6.1-6.5-12.6-2.8-6.6-4.7-13.5-1.8-6.9-2.7-14-0.8-7.1-0.7-14.2-0.1-5.4 0.4-10.7 0.5-5.4 1.5-10.7 1-5.3 2.5-10.4 1.5-5.2 3.6-10.2 1.9-4.9 4.6-9.4 2.8-4.5 6.2-8.5 3.5-3.9 7.5-7.2 4.1-3.4 8.7-6 3.5-1.8 7.1-3.2 3.7-1.3 7.5-2.3 3.8-0.9 7.7-1.3 3.9-0.4 7.9-0.4 4 0 7.9 0.5 4 0.5 7.9 1.4 3.9 0.9 7.7 2.2 3.7 1.4 7.3 3.1 1.9 1 3.8 2.1 1.8 1.1 3.6 2.3 1.8 1.2 3.4 2.5 1.7 1.3 3.3 2.8v-75h28.3v178.3m-28.8-42.5q0-3.7-0.3-7.3-0.4-3.6-1.1-7.2-0.7-3.5-1.7-7-1.1-3.5-2.5-6.8-1.2-3-3-5.7-1.7-2.7-3.8-5.1-2.1-2.3-4.6-4.3-2.6-2-5.4-3.5-2.2-1.1-4.5-1.9-2.4-0.8-4.8-1.3-2.4-0.5-4.9-0.8-2.4-0.2-4.9-0.1-2.3-0.1-4.7 0.1-2.3 0.3-4.6 0.8-2.3 0.6-4.5 1.5-2.2 0.8-4.2 2-1.8 1-3.4 2.3-1.7 1.2-3.1 2.7-1.5 1.4-2.8 3-1.2 1.7-2.3 3.4-2.3 4.2-4 8.5-1.7 4.4-2.8 9-1.1 4.5-1.5 9.2-0.5 4.7-0.4 9.4 0 2.8 0.2 5.6 0.1 2.8 0.4 5.6 0.2 2.8 0.6 5.6 0.4 2.7 1 5.5 0.5 2.7 1.2 5.3 0.7 2.6 1.7 5.2 0.9 2.5 2.1 5 1.2 2.4 2.6 4.7 0.8 1.4 1.8 2.7 1 1.2 2 2.4 1.1 1.2 2.3 2.2 1.2 1.1 2.5 2 1.9 1.3 4 2.3 2.1 1 4.3 1.6 2.2 0.7 4.5 0.9 2.2 0.3 4.5 0.3 2.8 0 5.5-0.2 2.7-0.3 5.4-0.9 2.7-0.6 5.3-1.5 2.5-0.9 5-2.2 2-1 3.9-2.4 1.8-1.3 3.5-2.9 1.7-1.5 3.1-3.3 1.5-1.8 2.7-3.7 2.6-4.6 4.6-9.6 1.9-4.9 3.2-10.1 1.2-5.2 1.7-10.5 0.5-5.3 0.2-10.6z"/>
			<path id="Layer" class="s1" d="m1003.1 1014.4q3.1 1 5.9 2.5 2.9 1.4 5.5 3.3 2.6 1.9 4.9 4.1 2.3 2.2 4.3 4.8 1.9 2.5 3.3 5.4 1.5 2.8 2.5 5.8 1 3 1.5 6.1 0.5 3.2 0.4 6.3 0.1 3.1-0.3 6.1-0.3 3.1-1.1 6.1-0.7 2.9-1.9 5.8-1.1 2.8-2.6 5.5-1.5 2.4-3.2 4.7-1.7 2.3-3.6 4.4-2 2-4.2 3.8-2.2 1.9-4.6 3.4-5 3.1-10.5 5.5-5.4 2.3-11.1 3.8-5.8 1.6-11.6 2.3-5.9 0.7-11.9 0.6-3.9 0-7.7-0.3-3.9-0.3-7.8-1-3.8-0.7-7.5-1.8-3.8-1.1-7.4-2.5-3.7-1.4-7.1-3.5-3.5-2-6.5-4.5-3-2.6-5.6-5.6-2.6-3-4.7-6.4-1.4-2.6-2.5-5.4-1.1-2.7-1.9-5.5-0.7-2.9-1.1-5.8-0.4-3-0.4-5.9v-5.6h29.5l0.3 5q0.1 1.4 0.3 2.9 0.2 1.4 0.7 2.7 0.4 1.4 1 2.7 0.5 1.3 1.3 2.5 0.7 1 1.5 2 0.8 0.9 1.7 1.8 0.9 0.8 2 1.6 1 0.7 2.1 1.3 2.8 1.4 5.7 2.4 3 1 6 1.6 3 0.6 6.1 0.9 3.1 0.2 6.2 0.1 2.4 0 4.7-0.2 2.3-0.2 4.6-0.6 2.3-0.4 4.5-1 2.2-0.6 4.4-1.5 1.8-0.7 3.5-1.6 1.7-1 3.2-2.2 1.5-1.2 2.8-2.6 1.3-1.5 2.4-3.1 0.7-1.2 1.2-2.4 0.5-1.2 0.8-2.5 0.3-1.3 0.5-2.6 0.1-1.3 0.1-2.7 0-1.2-0.1-2.4-0.2-1.2-0.6-2.4-0.3-1.2-0.9-2.2-0.5-1.1-1.2-2.1-0.9-1-1.8-1.9-1-0.9-2.1-1.7-1-0.8-2.2-1.4-1.1-0.7-2.3-1.2-3.2-1.2-6.4-2.3-3.3-1.1-6.6-2-3.3-1-6.6-1.7-3.3-0.8-6.7-1.4l-4.3-0.9q-2.4-0.5-4.9-1.2-2.5-0.6-4.9-1.3-2.5-0.7-4.9-1.5-2.4-0.7-4.8-1.5-2.4-0.7-4.7-1.6-2.3-0.9-4.5-2-2.2-1.1-4.3-2.3-2.2-1.3-4.2-2.7-1.3-1.1-2.5-2.2-1.2-1.2-2.3-2.4-1.1-1.3-2-2.6-1-1.4-1.9-2.8-1.2-2.2-2.1-4.5-0.9-2.3-1.5-4.7-0.5-2.4-0.8-4.9-0.3-2.4-0.3-4.9 0-2.8 0.3-5.6 0.4-2.7 1.1-5.4 0.7-2.7 1.8-5.3 1-2.6 2.4-5 1.3-2.2 2.9-4.2 1.5-2 3.3-3.8 1.8-1.8 3.8-3.4 2-1.5 4.2-2.8 4.4-2.5 9.2-4.3 4.7-1.9 9.7-3.1 4.9-1.2 10-1.8 5-0.5 10.1-0.4 3.9-0.1 7.7 0.2 3.9 0.2 7.7 0.9 3.8 0.6 7.6 1.5 3.7 1 7.3 2.3 3.5 1.2 6.7 3.1 3.2 1.8 6.1 4.1 2.8 2.4 5.2 5.2 2.5 2.8 4.3 6 1.4 2.4 2.4 5 1.1 2.6 1.8 5.2 0.8 2.7 1.3 5.4 0.4 2.7 0.6 5.5l0.4 5.6h-29.7l-0.4-4.9q-0.1-1.2-0.3-2.4-0.3-1.1-0.6-2.2-0.4-1.1-0.9-2.2-0.5-1.1-1.2-2.1-0.6-0.8-1.3-1.6-0.7-0.8-1.5-1.5-0.8-0.7-1.6-1.3-0.9-0.6-1.8-1.1-2.5-1.2-5.1-2.1-2.5-0.9-5.2-1.5-2.7-0.6-5.4-0.8-2.7-0.2-5.5-0.1-2 0-3.9 0.1-2 0.2-4 0.5-2 0.3-3.9 0.8-1.9 0.5-3.8 1.1-1.5 0.5-2.9 1.2-1.3 0.7-2.6 1.6-1.2 0.9-2.3 2-1.1 1.1-1.9 2.4-0.6 0.9-0.9 1.9-0.4 0.9-0.7 1.9-0.3 1-0.4 2-0.1 1-0.1 2.1 0 0.6 0 1.2 0.1 0.6 0.2 1.2 0.1 0.6 0.3 1.2 0.2 0.6 0.4 1.2 0.2 0.4 0.5 0.9 0.2 0.4 0.5 0.9 0.3 0.4 0.7 0.7 0.3 0.4 0.7 0.8 1.3 1 2.7 1.8 1.5 0.9 3 1.6 1.5 0.7 3 1.2 1.6 0.6 3.2 0.9c4.6 1.5 10 2.8 16.2 4.4 9.7 2.4 20.4 5.1 32.5 9.2"/>
			<path id="Layer" class="s1" d="m1044.6 885.4h31.2v32.1h-31.2z"/>
			<path id="Layer" class="s1" d="m1046.1 947.8h28.2v153.2h-28.2z"/>
			<path id="Layer" fill-rule="evenodd" class="s1" d="m1388.1 1048.1l-0.5 2q-1.3 6-3.6 11.6-2.3 5.7-5.5 10.9-3.2 5.1-7.3 9.7-4 4.6-8.8 8.4-5 3.4-10.5 6-5.5 2.6-11.4 4.3-5.8 1.7-11.9 2.4-6 0.7-12.1 0.4-4 0.1-7.9-0.3-4-0.4-7.9-1.3-3.9-0.9-7.6-2.2-3.8-1.3-7.4-3.1-3.2-1.6-6.2-3.6-3-2-5.7-4.3-2.8-2.3-5.2-5-2.5-2.6-4.6-5.5-4.3-6-7.5-12.7-3.2-6.6-5.3-13.7-2.2-7.1-3.2-14.4-0.9-7.3-0.8-14.7 0-5.6 0.6-11.1 0.6-5.6 1.8-11.1 1.2-5.4 3.1-10.7 1.8-5.3 4.2-10.3c2.7-5.7 6.2-11 10.4-15.7 4.2-4.7 9-8.8 14.4-12.1 5.3-3.4 11.1-5.9 17.2-7.6 6.1-1.6 12.4-2.4 18.7-2.3q4.2 0 8.5 0.3 4.2 0.4 8.4 1.3 4.2 0.8 8.3 2.1 4 1.3 8 3 3.3 1.6 6.4 3.6 3.2 1.9 6 4.3 2.9 2.3 5.4 5 2.6 2.7 4.7 5.7c10.5 14.4 16 34.4 16 59.5v5.6h-112q0.2 3 0.6 6 0.5 2.9 1.2 5.9 0.8 2.9 1.8 5.7 1 2.8 2.3 5.5 1.4 3 3.3 5.7 1.9 2.6 4.2 4.9 2.3 2.3 5 4.2 2.7 1.8 5.7 3.2 2.4 1 4.9 1.8 2.5 0.8 5.1 1.3 2.6 0.5 5.2 0.7 2.6 0.2 5.3 0.2 3.2 0 6.3-0.5 3.2-0.5 6.2-1.5 3-1 5.8-2.6 2.8-1.5 5.3-3.5 2.4-2 4.5-4.4 2.1-2.3 3.7-5 1.7-2.7 2.8-5.6 1.2-2.9 1.9-5.9zm-98.6-66.5q-2.1 2.6-3.9 5.5-1.8 3-3.2 6.1-1.5 3.1-2.5 6.4-1 3.3-1.5 6.6h80.6q-0.4-2.5-1-5-0.5-2.5-1.4-4.9-0.8-2.4-1.8-4.7-1-2.4-2.3-4.6-1.4-2.5-3.2-4.7-1.8-2.3-3.9-4.2-2.2-1.9-4.6-3.4-2.4-1.6-5-2.7-2.1-0.8-4.3-1.5-2.2-0.6-4.4-1-2.2-0.4-4.4-0.6-2.3-0.1-4.5-0.1-2.2 0-4.4 0.2-2.1 0.2-4.2 0.6-2.1 0.4-4.2 1.1-2 0.7-4 1.6-1.7 0.8-3.3 1.8-1.7 1-3.2 2.2-1.5 1.2-2.9 2.5-1.3 1.3-2.6 2.8z"/>
			<path id="Layer" class="s1" d="m377.1 1292.8v69.7h107.7v27.9h-140.1v-217.8h137.8v27.9h-105.4v64.4h100.3v27.9h-100.3z"/>
			<path id="Layer" class="s1" d="m642.9 1286.5v104.1h-31.5v-98.2q0.3-3.2-0.1-6.4-0.3-3.1-1.3-6.2-1-3-2.5-5.8-1.6-2.8-3.6-5.2-2.5-2.5-5.5-4.5-3-2-6.3-3.3-3.3-1.4-6.8-2-3.5-0.7-7.1-0.6-3.7 0-7.3 0.6-3.7 0.7-7.1 2.1-3.5 1.4-6.6 3.4-3 2.1-5.6 4.7-3 3-5.2 6.6-2.3 3.5-3.8 7.4-1.5 3.9-2.2 8-0.6 4.2-0.5 8.3v90.9h-31.6v-132.3c0-5.5-0.4-11.8-0.4-18.7v-1.3h30.7l1.1 21c9.7-16.6 25.5-24.9 46.9-24.9q4.7-0.1 9.3 0.5 4.7 0.6 9.2 1.9 4.5 1.4 8.8 3.3 4.3 2 8.2 4.6c13.7 9 20.9 23.2 20.8 42z"/>
			<path id="Layer" class="s1" d="m907.4 1234v29.6h-1.4q-1.5-0.1-3-0.2-1.4-0.2-2.9-0.2-1.5-0.1-3-0.1-1.5 0-3 0c-27.4 0-40.7 14.6-40.7 44.6v82.7h-31.7v-132.3c0-5.5-0.1-11.8-0.5-18.7v-1.3h30.7l0.5 21.1c7-16.6 22.7-25 46-25z"/>
			<path id="Layer" fill-rule="evenodd" class="s1" d="m1026.1 1238h29.8c0 1.8 0 6.9 0 12.5 0 5.7 0 111.5 0 114.8q0.1 5.6 0 11.2-0.1 5.7-0.5 11.3-0.4 5.6-1.1 11.2-0.7 5.6-1.7 11.2-0.7 3.2-1.9 6.2-1.1 3.1-2.8 5.9-1.6 2.8-3.6 5.4-2 2.6-4.3 4.8c-10.9 11.2-29.4 16.7-54.9 16.7-22.5 0-39-3.4-49.4-11.1-10.5-7.8-15.7-20.9-16-39v-1.3h32.4v1.2c0.7 18.8 11.7 27.9 33.4 27.9 16.4 0 27.4-5.4 32.6-16 3.8-7.8 5.9-22.8 6.1-44.6-8.5 14.5-23.8 21.8-46.1 21.8-22.3 0-39.5-7.1-50.2-21q-4.2-5.8-7.3-12.3-3.1-6.5-5.2-13.4-2-6.9-2.9-14.1-0.8-7.1-0.5-14.3c0-25.2 6.4-44.9 19-58.4 3.2-3.4 6.7-6.4 10.5-9 3.8-2.6 7.8-4.8 12.1-6.6 4.2-1.7 8.7-3 13.2-3.8 4.5-0.8 9.1-1.2 13.7-1 4.4-0.2 8.7 0.1 13 0.9 4.3 0.8 8.5 2.2 12.5 4 3.9 1.8 7.7 4.1 11.1 6.8 3.4 2.7 6.5 5.9 9.2 9.3zm-13.7 31.1q-3-3-6.5-5.3-3.5-2.3-7.3-3.9-3.9-1.6-8.1-2.3-4.1-0.7-8.3-0.6c-26 0-38.7 17.9-38.7 54.9 0 17.2 3.4 30.6 10.2 39.8q2.4 3.3 5.6 6 3.2 2.6 7 4.4 3.7 1.7 7.7 2.5 4.1 0.9 8.2 0.7c3 0.2 6 0.1 9-0.4 3-0.6 5.9-1.4 8.6-2.7 2.8-1.2 5.4-2.8 7.8-4.6 2.3-1.9 4.5-4 6.3-6.4 6.9-9.6 10.4-24.1 10.4-43.1 0-17.8-4-31-12-39z"/>
			<path id="Layer" class="s1" d="m1198.3 1238.1h34l-0.7 1.8-64.9 146.3-23.2 60.1h-31.8l23.2-58.2-63.2-150h34l0.3 0.8 47 113 45.3-113.8z"/>
			<path id="Layer" fill-rule="evenodd" class="s1" d="m801.4 1339.7l-0.5 2q-1.3 6-3.6 11.6-2.3 5.7-5.5 10.9-3.2 5.1-7.3 9.7-4 4.6-8.8 8.4-5 3.4-10.5 6-5.5 2.6-11.4 4.2-5.8 1.7-11.9 2.4-6 0.7-12.1 0.5-4 0-7.9-0.4-4-0.4-7.9-1.3-3.9-0.8-7.6-2.1-3.8-1.3-7.4-3.1-3.2-1.6-6.2-3.6-3-2-5.7-4.3-2.7-2.4-5.2-5-2.4-2.6-4.6-5.5-4.2-6.1-7.5-12.8-3.2-6.6-5.3-13.7-2.2-7.1-3.1-14.5-1-7.4-0.8-14.8-0.1-5.6 0.5-11.1 0.6-5.6 1.8-11 1.3-5.5 3.1-10.7 1.9-5.3 4.3-10.3 2.4-5 5.5-9.4 3.1-4.5 6.9-8.4 3.8-3.9 8.2-7.2 4.3-3.3 9.2-5.8 3.6-1.7 7.3-3 3.8-1.4 7.7-2.2 3.9-0.9 7.9-1.3 3.9-0.4 7.9-0.4 4.3-0.1 8.5 0.3 4.3 0.4 8.5 1.2 4.2 0.8 8.2 2.1 4.1 1.3 8 3 3.4 1.6 6.5 3.6 3.2 2 6 4.3 2.9 2.4 5.4 5.1 2.6 2.7 4.8 5.7c10.3 14.4 15.9 34.4 15.9 59.5v5.6h-112q0.1 3 0.6 6 0.4 2.9 1.2 5.9 0.7 2.9 1.7 5.7 1.1 2.8 2.4 5.6 1.4 2.9 3.3 5.6 1.9 2.6 4.2 4.9 2.3 2.3 5 4.2 2.7 1.9 5.7 3.2 2.4 1.1 4.9 1.8 2.5 0.8 5.1 1.3 2.6 0.5 5.2 0.7 2.6 0.2 5.2 0.1 3.2 0 6.4-0.5 3.2-0.5 6.2-1.6 3-1.1 5.8-2.7 2.8-1.5 5.3-3.6 2.4-2 4.4-4.4 2.1-2.3 3.7-5 1.7-2.7 2.9-5.6 1.1-2.9 1.9-5.9zm-102.6-61.4q-1.8 2.9-3.2 6-1.5 3.1-2.5 6.4-0.9 3.2-1.5 6.6h80.7q-0.3-2.5-0.9-5-0.6-2.5-1.4-4.9-0.8-2.4-1.8-4.8-1.1-2.3-2.3-4.5-1.4-2.5-3.2-4.7-1.8-2.3-4-4.2-2.1-1.9-4.5-3.4-2.4-1.5-5.1-2.7-2.1-0.8-4.2-1.4-2.2-0.7-4.4-1.1-2.3-0.4-4.5-0.6-2.3-0.2-4.5-0.1-2.2-0.1-4.3 0.1-2.2 0.2-4.3 0.7-2.1 0.4-4.2 1.1-2 0.6-4 1.5-1.7 0.9-3.3 1.9-1.7 1-3.2 2.2-1.5 1.2-2.9 2.5-1.3 1.3-2.6 2.8-2.1 2.7-3.9 5.6z"/>
		</g>
	</g>
</svg>